HIERARCHY
ROOT Hips
{
	OFFSET -0.001795 -0.223333 0.028219
	CHANNELS 6 Xposition Yposition Zposition Zrotation Yrotation Xrotation
	JOINT LeftUpLeg
	{
		OFFSET 0.069520 -0.091406 -0.006815
		CHANNELS 3 Zrotation Yrotation Xrotation
		JOINT LeftLeg
		{
			OFFSET 0.034277 -0.375199 -0.004496
			CHANNELS 3 Zrotation Yrotation Xrotation
			JOINT LeftFoot
			{
				OFFSET -0.013596 -0.397961 -0.043693
				CHANNELS 3 Zrotation Yrotation Xrotation
				JOINT LeftToe
				{
					OFFSET 0.026358 -0.055791 0.119288
					CHANNELS 3 Zrotation Yrotation Xrotation
					End Site
					{
						OFFSET 0.000000 0.000000 0.000000
					}
				}
			}
		}
	}
	JOINT RightUpLeg
	{
		OFFSET -0.067670 -0.090522 -0.004320
		CHANNELS 3 Zrotation Yrotation Xrotation
		JOINT RightLeg
		{
			OFFSET -0.038290 -0.382569 -0.008850
			CHANNELS 3 Zrotation Yrotation Xrotation
			JOINT RightFoot
			{
				OFFSET 0.015774 -0.398415 -0.042312
				CHANNELS 3 Zrotation Yrotation Xrotation
				JOINT RightToe
				{
					OFFSET -0.025372 -0.048144 0.123348
					CHANNELS 3 Zrotation Yrotation Xrotation
					End Site
					{
						OFFSET 0.000000 0.000000 0.000000
					}
				}
			}
		}
	}
	JOINT Spine
	{
		OFFSET -0.002533 0.108963 -0.026696
		CHANNELS 3 Zrotation Yrotation Xrotation
		JOINT Spine1
		{
			OFFSET 0.005487 0.135180 0.001092
			CHANNELS 3 Zrotation Yrotation Xrotation
			JOINT Spine2
			{
				OFFSET 0.001457 0.052922 0.025425
				CHANNELS 3 Zrotation Yrotation Xrotation
				JOINT Neck
				{
					OFFSET -0.002778 0.213870 -0.042857
					CHANNELS 3 Zrotation Yrotation Xrotation
					JOINT Head
					{
						OFFSET 0.005152 0.064970 0.051349
						CHANNELS 3 Zrotation Yrotation Xrotation
						End Site
						{
							OFFSET 0.000000 0.000000 0.000000
						}
					}
				}
				JOINT LeftShoulder
				{
					OFFSET 0.078845 0.121749 -0.034090
					CHANNELS 3 Zrotation Yrotation Xrotation
					JOINT LeftArm
					{
						OFFSET 0.090977 0.030469 -0.008868
						CHANNELS 3 Zrotation Yrotation Xrotation
						JOINT LeftForeArm
						{
							OFFSET 0.259612 -0.012772 -0.027456
							CHANNELS 3 Zrotation Yrotation Xrotation
							JOINT LeftHand
							{
								OFFSET 0.249234 0.008986 -0.001171
								CHANNELS 3 Zrotation Yrotation Xrotation
								End Site
								{
									OFFSET 0.000000 0.000000 0.000000
								}
							}
						}
					}
				}
				JOINT RightShoulder
				{
					OFFSET -0.081759 0.118833 -0.038615
					CHANNELS 3 Zrotation Yrotation Xrotation
					JOINT RightArm
					{
						OFFSET -0.096012 0.032551 -0.009143
						CHANNELS 3 Zrotation Yrotation Xrotation
						JOINT RightForeArm
						{
							OFFSET -0.253742 -0.013329 -0.021401
							CHANNELS 3 Zrotation Yrotation Xrotation
							JOINT RightHand
							{
								OFFSET -0.255298 0.007772 -0.005559
								CHANNELS 3 Zrotation Yrotation Xrotation
								End Site
								{
									OFFSET 0.000000 0.000000 0.000000
								}
							}
						}
					}
				}
			}
		}
	}
}
MOTION
Frames: 12
Frame Time: 0.050000
0.000000 0.931243 0.000000 -1.968083 3.413154 -3.256506 1.755437 0.689002 10.328924 0.787862 -0.014948 -1.619262 -1.501678 -2.958499 0.400901 0.000000 0.000000 0.000000 3.109126 -1.163232 8.417456 0.960368 -0.123822 -0.448939 -0.738758 -2.161385 0.599479 0.000000 0.000000 0.000000 0.872533 0.031086 -0.582299 0.590451 -0.505713 4.478962 -1.660407 0.345663 1.638503 6.223266 -2.762648 -13.121219 0.000000 0.000000 0.000000 -30.609297 -4.792908 -1.173001 -46.917287 0.485944 -5.168404 -2.398634 -17.381123 0.931466 0.000000 0.000000 0.000000 28.677720 2.054379 -0.622581 54.954359 4.486904 -3.352008 -3.270807 22.002384 0.248120 0.000000 0.000000 0.000000
-0.000285 0.931047 0.000278 -1.889857 3.734865 -2.985569 1.822479 0.666882 10.221064 0.636531 0.013947 -1.994643 -1.660223 -3.250940 0.467186 0.000000 0.000000 0.000000 2.912312 -1.126446 8.238663 1.297624 -0.166047 -0.592897 -0.835160 -2.398551 0.582048 0.000000 0.000000 0.000000 0.894156 0.071492 -1.463366 0.629997 -0.632713 6.261250 -1.957097 0.239932 0.804678 7.399959 -3.118169 -15.283124 0.000000 0.000000 0.000000 -30.527540 -4.762809 -1.250249 -46.727678 1.006289 -5.256132 -2.594351 -18.538318 1.016648 0.000000 0.000000 0.000000 27.770708 2.115999 -0.549104 56.640395 4.955049 -3.106985 -3.504796 21.896758 0.199894 0.000000 0.000000 0.000000
-0.000413 0.930287 0.000247 -1.377322 3.560871 -2.939130 1.553838 0.712996 10.408129 0.085069 0.072399 -2.310902 -1.673353 -3.238848 0.541150 0.000000 0.000000 0.000000 2.475536 -1.118661 8.478810 1.046567 -0.151093 -1.042216 -0.847670 -2.270703 0.188513 0.000000 0.000000 0.000000 0.834224 0.030665 -0.598692 0.526590 -0.434491 3.725082 -1.708079 -0.685708 2.677701 6.439854 -2.776610 -14.695585 0.000000 0.000000 0.000000 -29.999053 -5.030451 -0.490170 -47.725134 -0.544428 -5.106177 -0.866602 -17.026027 0.721996 0.000000 0.000000 0.000000 27.844222 4.195746 0.460807 55.217992 5.519412 -2.866275 -2.325574 20.465377 0.343874 0.000000 0.000000 0.000000
-0.000625 0.930167 0.000131 -1.112815 3.317307 -3.418174 0.914078 0.846260 11.227654 0.701040 0.038409 -2.772463 -1.604947 -3.012582 0.686210 0.000000 0.000000 0.000000 2.331008 -1.156253 8.909271 0.718217 -0.110231 -0.863529 -0.823248 -2.103240 -0.060287 0.000000 0.000000 0.000000 0.599871 0.018395 -0.337178 0.267226 -0.348259 4.875601 -1.371739 -0.660392 2.120372 6.360029 -2.606007 -15.533274 0.000000 0.000000 0.000000 -29.755654 -5.145584 -0.339397 -48.304027 -0.942365 -5.001783 -0.619783 -17.767008 0.716350 0.000000 0.000000 0.000000 27.910076 5.237519 1.029008 55.029713 6.163629 -2.495910 -2.264320 20.024360 0.330897 0.000000 0.000000 0.000000
-0.000840 0.930435 -0.000224 -0.722508 3.458106 -3.299390 0.656716 0.879094 11.315332 0.466671 0.073476 -3.205347 -1.802716 -3.191177 1.088498 0.000000 0.000000 0.000000 2.079473 -1.139088 8.942104 0.468281 -0.093253 -1.142685 -0.886763 -2.268912 -0.058481 0.000000 0.000000 0.000000 0.366613 0.007275 -0.116877 0.214192 -0.333422 5.114726 -1.318209 -0.953693 1.541046 5.753136 -2.196868 -15.876192 0.000000 0.000000 0.000000 -29.859555 -5.389796 -0.105536 -48.258898 -1.442936 -4.781174 -0.023977 -17.519284 0.619680 0.000000 0.000000 0.000000 28.105498 6.060160 1.426334 53.868189 6.444512 -2.241717 -1.704822 18.371281 0.366704 0.000000 0.000000 0.000000
-0.000896 0.930740 -0.000481 -0.510624 3.702273 -2.945789 0.666275 0.870937 11.293014 0.104122 0.125123 -3.925210 -2.060454 -3.459815 1.535552 0.000000 0.000000 0.000000 1.966268 -1.121676 8.852841 0.338922 -0.098878 -1.669882 -0.942292 -2.489260 0.126575 0.000000 0.000000 0.000000 0.033789 0.015128 -0.359372 0.225337 -0.328735 4.796475 -1.025396 -1.134166 1.980262 5.076414 -1.748109 -16.386868 0.000000 0.000000 0.000000 -29.471220 -5.333686 -0.035063 -48.892396 -2.133208 -4.637488 0.196312 -17.831331 0.604494 0.000000 0.000000 0.000000 28.047975 6.651000 1.780092 53.301195 6.657435 -2.155810 -1.409435 17.132005 0.378835 0.000000 0.000000 0.000000
-0.000836 0.931692 -0.000726 -0.395869 3.934375 -2.561603 0.351198 0.887934 11.124021 0.487238 0.118088 -4.469666 -2.269856 -3.575724 2.057765 0.000000 0.000000 0.000000 1.997737 -1.078352 8.461736 0.131837 -0.080649 -1.737628 -0.996472 -2.754731 0.444804 0.000000 0.000000 0.000000 -0.236488 0.010934 -0.284764 0.348964 -0.377603 4.350316 -0.946570 -1.240433 2.195472 5.194614 -1.772749 -16.784941 0.000000 0.000000 0.000000 -29.487953 -5.207068 -0.103453 -48.712340 -2.509327 -4.488860 0.306444 -17.899118 0.592692 0.000000 0.000000 0.000000 28.004090 7.017616 2.026727 52.718101 6.758490 -2.108901 -1.499726 16.480205 0.353650 0.000000 0.000000 0.000000
-0.000732 0.932651 -0.000985 -0.421325 4.212431 -2.506002 0.078740 0.925745 11.313500 1.094926 0.101695 -5.033176 -2.474073 -3.709238 2.514643 0.000000 0.000000 0.000000 1.953358 -1.032748 8.110450 0.331650 -0.082411 -1.233319 -1.063888 -3.018545 0.685052 0.000000 0.000000 0.000000 -0.390359 -0.012300 0.348147 0.424350 -0.380519 3.551062 -0.747300 -1.129575 2.437649 5.245895 -1.798657 -16.702420 0.000000 0.000000 0.000000 -30.100472 -6.024085 0.312267 -48.189385 -3.178076 -4.167466 1.181988 -17.014372 0.432262 0.000000 0.000000 0.000000 28.663728 7.255477 2.278332 52.094097 6.935817 -2.072279 -2.331384 15.022776 0.236768 0.000000 0.000000 0.000000
-0.000518 0.933638 -0.001416 -0.441625 4.769848 -2.358164 0.142001 0.908359 11.357765 1.153732 0.120605 -5.586114 -2.851957 -4.136646 3.032575 0.000000 0.000000 0.000000 1.884916 -1.008195 7.916372 0.619780 -0.111676 -1.187338 -1.185481 -3.473111 1.094607 0.000000 0.000000 0.000000 -0.353190 -0.032925 0.915669 0.384057 -0.364870 3.508945 -0.754729 -1.250437 1.874241 5.526448 -1.860517 -17.253786 0.000000 0.000000 0.000000 -30.017704 -6.427152 0.490211 -48.220131 -3.835711 -3.843705 1.554578 -15.871529 0.346107 0.000000 0.000000 0.000000 28.677337 7.505161 2.485420 52.536525 6.716809 -2.144801 -3.079174 14.534792 0.151693 0.000000 0.000000 0.000000
-0.000307 0.935159 -0.002024 -0.761190 4.656269 -2.175597 0.519883 0.870957 11.420010 1.030006 0.149806 -6.175152 -2.977320 -4.015489 3.658475 0.000000 0.000000 0.000000 2.107233 -0.992417 7.654273 0.785296 -0.131245 -1.251558 -1.022579 -3.314776 1.788223 0.000000 0.000000 0.000000 0.068163 -0.075860 1.881244 0.369297 -0.321705 2.876166 -0.682813 -1.074855 1.177527 4.922819 -1.427262 -17.636075 0.000000 0.000000 0.000000 -30.105788 -6.307013 0.311234 -49.026710 -4.305279 -3.644440 2.780576 -13.776445 0.151416 0.000000 0.000000 0.000000 28.563497 7.581404 2.564634 52.683110 6.776391 -2.072793 -3.575916 13.580880 0.096320 0.000000 0.000000 0.000000
-0.000089 0.936267 -0.002513 -0.956908 4.284275 -1.783367 0.693894 0.813998 10.784388 0.932755 0.142159 -5.836184 -2.847573 -3.659998 3.862103 0.000000 0.000000 0.000000 2.380403 -0.967429 7.306685 0.562046 -0.117606 -1.558114 -0.814946 -2.999681 2.307416 0.000000 0.000000 0.000000 0.390249 -0.100548 2.295244 0.296300 -0.284754 2.953055 -0.654695 -0.441583 0.568024 5.165752 -1.457534 -18.017059 0.000000 0.000000 0.000000 -30.632569 -6.877301 0.442149 -48.421898 -5.393937 -3.044389 2.714096 -11.942748 0.131756 0.000000 0.000000 0.000000 28.837505 7.692625 2.795007 52.329590 7.788755 -1.618220 -3.648290 11.042636 0.087958 0.000000 0.000000 0.000000
-0.000013 0.938714 -0.002367 -1.217646 4.163772 -1.918939 0.927236 0.742336 10.104816 0.974952 0.083784 -4.396277 -2.824799 -3.452504 4.151153 0.000000 0.000000 0.000000 2.885209 -0.831795 6.027774 0.164521 0.014266 0.918562 -0.849966 -3.191973 2.601881 0.000000 0.000000 0.000000 0.650890 -0.167646 3.579154 0.600941 -0.403311 2.253234 -0.864815 0.007135 -0.710595 5.111113 -1.338704 -18.113902 0.000000 0.000000 0.000000 -30.539575 -6.697269 0.064102 -49.289814 -5.283277 -2.974143 3.426178 -11.281286 0.042487 0.000000 0.000000 0.000000 28.997305 8.228665 3.288668 52.191633 8.281081 -1.342144 -4.536787 9.401021 0.033461 0.000000 0.000000 0.000000
